<?xml version="1.0" standalone="no"?>
<!DOCTYPE svg PUBLIC "-//W3C//DTD SVG 20010904//EN"
 "http://www.w3.org/TR/2001/REC-SVG-20010904/DTD/svg10.dtd">
<svg version="1.0" xmlns="http://www.w3.org/2000/svg"
 width="1024.000000pt" height="1024.000000pt" viewBox="0 0 1024.000000 1024.000000"
 preserveAspectRatio="xMidYMid meet">
<metadata>
Created by potrace 1.11, written by Peter Selinger 2001-2013
</metadata>
<g transform="translate(0.000000,1024.000000) scale(0.100000,-0.100000)"
fill="#000000" stroke="none">
<path d="M2978 9875 c-2 -1 -39 -5 -83 -8 -44 -3 -91 -8 -105 -11 -14 -3 -41
-7 -60 -10 -19 -3 -60 -13 -90 -22 -30 -9 -59 -17 -65 -18 -17 -3 -92 -32
-170 -67 -160 -73 -380 -247 -522 -416 -47 -56 -53 -64 -53 -72 0 -5 -3 -11
-7 -13 -12 -5 -46 -56 -79 -118 -16 -30 -31 -57 -34 -60 -21 -19 -113 -277
-125 -350 -3 -19 -10 -60 -17 -90 -12 -62 -16 -324 -5 -412 20 -172 81 -368
159 -518 28 -52 54 -97 58 -100 4 -3 18 -23 30 -45 70 -126 274 -321 435 -416
83 -49 197 -102 278 -128 40 -14 67 -28 68 -37 0 -8 0 -833 0 -1834 0 -1001 0
-1831 0 -1844 -1 -21 -12 -28 -73 -52 -69 -26 -172 -75 -265 -128 -58 -32
-187 -129 -247 -185 -50 -48 -162 -173 -183 -207 -7 -10 -24 -36 -38 -57 -34
-51 -118 -219 -143 -287 -39 -102 -65 -219 -81 -365 -9 -77 -6 -299 3 -355 4
-19 11 -60 16 -90 13 -74 43 -175 75 -257 31 -78 113 -236 135 -261 8 -10 31
-40 49 -67 67 -96 214 -243 328 -326 32 -23 60 -46 63 -49 3 -4 30 -20 60 -36
30 -16 67 -37 81 -47 14 -10 32 -19 40 -21 8 -1 36 -12 63 -24 178 -80 462
-121 701 -101 89 7 289 44 309 57 6 3 18 8 28 9 28 4 192 78 255 115 209 123
443 353 556 548 80 137 157 337 174 455 2 17 7 41 9 55 31 153 18 447 -26 611
-7 24 -13 49 -15 54 -1 6 -5 17 -8 25 -15 41 -42 116 -43 120 -1 10 -76 156
-99 195 -103 172 -276 359 -428 463 -74 50 -199 118 -270 146 -35 14 -37 17
-26 37 36 68 177 181 290 233 158 71 523 155 839 191 30 3 66 8 80 10 14 2 70
9 125 15 55 6 116 13 135 15 19 3 78 7 130 10 52 3 102 7 110 9 8 3 57 7 108
11 51 3 102 8 113 10 11 2 50 7 87 10 37 3 74 8 82 10 8 2 35 7 60 10 294 41
611 140 945 295 380 177 659 458 805 810 17 41 35 84 40 95 22 46 62 188 85
300 22 108 27 138 40 225 5 29 17 202 18 242 1 23 9 29 71 54 104 39 315 158
346 193 3 3 28 24 55 46 247 196 449 541 505 860 30 172 32 459 4 556 -3 10
-6 30 -8 45 -9 72 -107 339 -140 384 -6 8 -20 31 -30 50 -76 141 -264 344
-431 467 -138 100 -288 172 -455 216 -232 62 -448 69 -710 24 -19 -4 -66 -16
-105 -28 -38 -11 -79 -23 -90 -26 -11 -3 -26 -10 -32 -16 -7 -5 -13 -7 -13 -4
0 7 -232 -111 -240 -121 -3 -4 -25 -21 -50 -37 -70 -47 -97 -71 -220 -196
-114 -116 -194 -218 -244 -314 -14 -27 -30 -57 -36 -65 -33 -52 -98 -253 -120
-372 -23 -117 -31 -307 -18 -413 14 -119 18 -142 43 -242 35 -140 136 -365
202 -452 7 -9 33 -45 60 -81 89 -122 237 -256 388 -352 70 -44 219 -114 318
-147 l52 -18 -2 -79 c-10 -316 -161 -620 -376 -757 -31 -20 -60 -38 -65 -38
-4 -1 -24 -13 -44 -26 -21 -13 -38 -21 -38 -19 0 3 -21 -5 -47 -18 -58 -29
-286 -101 -388 -122 -96 -21 -168 -31 -340 -50 -27 -2 -66 -7 -85 -9 -19 -2
-73 -7 -120 -10 -47 -3 -92 -8 -100 -10 -8 -2 -55 -6 -105 -10 -49 -3 -97 -8
-105 -10 -8 -2 -51 -6 -95 -10 -44 -3 -87 -8 -95 -10 -8 -2 -42 -7 -75 -10
-33 -3 -69 -8 -80 -10 -11 -2 -40 -7 -65 -10 -25 -3 -58 -7 -75 -10 -16 -3
-57 -9 -90 -15 -33 -5 -73 -12 -90 -14 -89 -12 -492 -104 -580 -132 -27 -9
-89 -31 -137 -50 -49 -19 -91 -34 -95 -34 -5 0 -8 600 -8 1334 l0 1334 68 22
c149 48 353 163 461 260 127 114 192 189 270 308 63 97 146 265 161 327 1 6 4
17 7 25 13 35 47 179 53 223 3 27 9 59 11 70 3 12 5 90 6 172 1 324 -83 596
-266 859 -54 78 -275 299 -357 358 -92 66 -179 115 -279 158 -79 35 -216 79
-265 86 -11 1 -54 7 -95 13 -71 10 -275 22 -282 16z m172 -1212 c58 -26 138
-106 163 -162 28 -64 25 -188 -7 -246 -32 -57 -79 -104 -133 -131 -112 -55
-268 -29 -350 57 -82 87 -103 241 -48 354 61 125 244 188 375 128z m4162
-1187 c46 -19 131 -104 159 -157 18 -35 23 -60 22 -119 0 -180 -117 -294 -299
-292 -196 2 -323 171 -279 372 22 103 105 185 212 209 50 11 143 4 185 -13z
m-4138 -5361 c66 -31 129 -103 146 -166 13 -49 16 -133 5 -179 -29 -130 -139
-213 -285 -214 -171 -2 -268 77 -290 236 -11 74 -5 128 21 188 64 146 249 208
403 135z"/>
</g>
</svg>
